<mxfile host="app.diagrams.net" modified="2023-12-15T02:32:13.361Z" agent="Mozilla/5.0 (Windows NT 10.0; Win64; x64) AppleWebKit/537.36 (KHTML, like Gecko) Chrome/120.0.0.0 Safari/537.36 Edg/120.0.0.0" version="22.1.9" etag="BFa_hcA0E5gyHUCFT2uF" type="github">
  <diagram name="Page-1" id="b-uq7VrKND6FAkj64RtK">
    <mxGraphModel>
      <root>
        <mxCell id="0" />
        <mxCell id="1" parent="0" />
      </root>
    </mxGraphModel>
  </diagram>
</mxfile>
